<?xml version="1.0" encoding="UTF-8"?> <svg xmlns="http://www.w3.org/2000/svg" xmlns:xlink="http://www.w3.org/1999/xlink" id="Layer_1" data-name="Layer 1" viewBox="0 0 782.46 579.55"><defs><style>.cls-1{fill:#f1b744;}.cls-2{fill:url(#linear-gradient);}.cls-3{fill:url(#linear-gradient-2);}.cls-4{fill:#f2c034;}.cls-5{fill:#435664;}</style><linearGradient id="linear-gradient" x1="627.29" y1="850.52" x2="185.65" y2="956.42" gradientTransform="matrix(0.98, -0.17, 0.17, 0.98, -71.39, -625.06)" gradientUnits="userSpaceOnUse"><stop offset="0.15" stop-color="#3bc2ec"></stop><stop offset="1" stop-color="#1fb15a"></stop></linearGradient><linearGradient id="linear-gradient-2" x1="634.99" y1="892.33" x2="180.75" y2="1001.26" xlink:href="#linear-gradient"></linearGradient></defs><path class="cls-1" d="M573.44,82.05a131.87,131.87,0,0,0-33.66-4c4.42,6.94,8.34,13.72,11.85,20.54l.34.73a170.55,170.55,0,0,1,39.75-10.89A92.38,92.38,0,0,0,573.44,82.05Z" transform="translate(-3.6 -3.16)"></path><path class="cls-2" d="M754.21,91.4c-40.29-13.72-81-14.25-122.62-6-55.48,11-114.27,44.23-160.51,76.8-59.25,41.72-91.87,77.06-150.52,97.56,11.28,5.71,31.45,15.86,50.93,18.39C393.27,280,413,279,436.74,267.5c39.14-18.38,81.72-59.89,139.85-101.61C608.5,143,642,122.69,678.88,108.62c19.83-7.57,40.23-12.86,61.44-14.69,2.89-.25,14.21-.83,17.53-.92A24.57,24.57,0,0,0,754.21,91.4Z" transform="translate(-3.6 -3.16)"></path><path class="cls-3" d="M654.47,140.19c-17.24,5.9-33,14.77-48.07,24.78-24.06,15.93-46.15,34.43-68.62,52.44-23.25,18.65-46.6,37.18-72.51,52.11-17.4,10-72.91,56.8-163.7-4.83-11.09,4.75-30.9,8.8-43.06,7.89.45.58-.2.34.27.9,12.6,14.93,32.44,30.14,38.64,34.48a145.17,145.17,0,0,0,41.09,20.16c18.88,5.69,58.36,8.49,83.46,3.1,24.38-5.24,46.29-16.1,66.94-29.75,26.39-17.45,49.7-38.6,72.5-60.36,22.06-21.06,43.35-42.92,66.25-63.1,19-16.72,38.69-32.41,61.81-43.22.41-.19.7-.49.48-1A109.26,109.26,0,0,0,654.47,140.19Z" transform="translate(-3.6 -3.16)"></path><path class="cls-1" d="M488.11,86.83c-6.33,1.26-49.25,19-73.07,34.21-28.93,18.5-56.05,39.54-83.71,59.81-21.19,15.52-42.61,30.7-66.08,42.69-.38.19-2.26,1.19-5.27,2.56l-.67.3-1.9.83-.88.37c-2.43,1-5.32,2.12-8.62,3.25l-.72.25c-1.06.36-2.16.71-3.3,1.06l-1,.31c-1.18.35-2.38.7-3.63,1l-.9.24a132.3,132.3,0,0,1-52.68,3.6,7.14,7.14,0,0,0,1.84,1.79c17.1,12.4,35.84,20.56,57,23.08,40,4.74,101.68-27.3,123.16-42.53,49.14-34.85,99.54-77.69,137-97.63C499.61,108.17,493.45,95.2,488.11,86.83Z" transform="translate(-3.6 -3.16)"></path><path class="cls-1" d="M331.73,27.59c41-16.43,79.83-15.06,117.64,6.35,31.45,17.82,50.5,44,66,82.37,7.17-4.26,20.15-11.35,27.2-13.19-18.55-40-49.88-66.34-71.84-78.37C426.44.49,379.89-3.35,332.4,13.37,293.6,27,263.5,52.52,242.92,89.17c-18.69,33.3-25.13,69.8-19.14,108.51a164.87,164.87,0,0,0,7.36,28.44c8.56-1.81,20.49-5.94,26.28-8.9A137.37,137.37,0,0,1,247.36,189c-4.81-19.9-5.26-39.4-1.33-57.95C256.62,81,285.46,46.15,331.73,27.59Z" transform="translate(-3.6 -3.16)"></path><path class="cls-4" d="M544.19,62.22" transform="translate(-3.6 -3.16)"></path><path class="cls-5" d="M167,582.72H131.79q-10,0-14.47-7.82l-44-67a15.47,15.47,0,0,0-5.43-5.35c-2-1.06-4.89-1.59-8.75-1.59H42.52v81.75H3.6V373.5H67.41q21.25,0,36.53,4.41t25,12.37a48.48,48.48,0,0,1,14.4,19,66.1,66.1,0,0,1,1.52,44.34,58,58,0,0,1-9,17.08,60.37,60.37,0,0,1-14.47,13.45,72.62,72.62,0,0,1-19.61,9.12,38.32,38.32,0,0,1,7,5.14,36.07,36.07,0,0,1,5.78,7ZM66.83,473A60.33,60.33,0,0,0,86,470.3a37.16,37.16,0,0,0,13.45-7.6,30.6,30.6,0,0,0,7.89-11.5,39.72,39.72,0,0,0,2.6-14.62q0-15.91-10.49-24.45t-32-8.54H42.52V473Z" transform="translate(-3.6 -3.16)"></path><path class="cls-5" d="M257.67,404.46v58h73.21v29.95H257.67v59.18h92.89v31.11h-132V373.5h132v31Z" transform="translate(-3.6 -3.16)"></path><path class="cls-5" d="M692.3,373.5l-65,209.22H592.18l-45.72-143A98.15,98.15,0,0,1,543,427c-.57,2.42-1.15,4.68-1.73,6.8s-1.21,4.1-1.88,5.94l-46.16,143h-35.3L393.09,373.5h32.56a14.39,14.39,0,0,1,8.46,2.39,11.57,11.57,0,0,1,4.56,6.44l35.59,125.15q1.15,4.63,2.24,10c.73,3.62,1.47,7.41,2.25,11.36q1.15-6.07,2.53-11.43t3-10l41.09-125.15a13.8,13.8,0,0,1,4.56-6.08,12.83,12.83,0,0,1,8.32-2.75h11.43a13.12,13.12,0,0,1,8.25,2.46,15,15,0,0,1,4.77,6.37l41,125.15a182,182,0,0,1,5.5,20.69q1.88-11.43,4.19-20.69l35.6-125.15a10.79,10.79,0,0,1,4.41-6.23,13.92,13.92,0,0,1,8.46-2.6Z" transform="translate(-3.6 -3.16)"></path><path class="cls-5" d="M786.06,582.72H747V373.5h39.07Z" transform="translate(-3.6 -3.16)"></path></svg> 